/* XPM */
static char *yua[] = {
/* columns rows colors chars-per-pixel */
"32 32 189 2 ",
"   c #04011E",
".  c #08031E",
"X  c #0E0725",
"o  c #0D0925",
"O  c #0D0D2B",
"+  c #140526",
"@  c #130B27",
"#  c #130C2A",
"$  c #1C0C2C",
"%  c #190534",
"&  c #0C1433",
"*  c #0D1B3E",
"=  c #131233",
"-  c #1D1333",
";  c #141739",
":  c #1A1738",
">  c #141A3C",
",  c #200726",
"<  c #220D2B",
"1  c #2A0E2A",
"2  c #25102E",
"3  c #2A112E",
"4  c #31122E",
"5  c #240C33",
"6  c #2A0E33",
"7  c #22073F",
"8  c #260D38",
"9  c #231432",
"0  c #2C1433",
"q  c #2E1933",
"w  c #251B3B",
"e  c #2E1939",
"r  c #341532",
"t  c #391432",
"y  c #341A35",
"u  c #3C1A34",
"i  c #31153B",
"p  c #3B1638",
"a  c #351D39",
"s  c #3B1D3B",
"d  c #2B213E",
"f  c #33233E",
"g  c #3F223B",
"h  c #401732",
"j  c #431B34",
"k  c #4B1E36",
"l  c #451C3A",
"z  c #4D1F38",
"x  c #511F37",
"c  c #5C1D33",
"v  c #591F3A",
"b  c #4F2037",
"n  c #45243D",
"m  c #4B223D",
"M  c #54223A",
"N  c #5C253B",
"B  c #5C293E",
"V  c #63273C",
"C  c #64293E",
"Z  c #6B2A3E",
"A  c #7C2B3C",
"S  c #131C42",
"D  c #200440",
"F  c #242142",
"G  c #262E4F",
"H  c #3A2240",
"J  c #3F3352",
"K  c #4E1E40",
"L  c #462240",
"P  c #4B2340",
"I  c #542543",
"U  c #5D2440",
"Y  c #532A44",
"T  c #5B2C43",
"R  c #562849",
"E  c #5E2B48",
"W  c #45314A",
"Q  c #54324A",
"!  c #50384F",
"~  c #4C3750",
"^  c #573850",
"/  c #612D43",
"(  c #6C2D42",
")  c #742E41",
"_  c #683146",
"`  c #663448",
"'  c #753245",
"]  c #7B3143",
"[  c #75354B",
"{  c #7D364A",
"}  c #77384C",
"|  c #7F3849",
" . c #683350",
".. c #723750",
"X. c #793750",
"o. c #783850",
"O. c #6A4257",
"+. c #64435F",
"@. c #6B465B",
"#. c #7C4050",
"$. c #7E5163",
"%. c #7F5668",
"&. c #833444",
"*. c #8A3646",
"=. c #8C3847",
"-. c #82364A",
";. c #83384A",
":. c #8B3B4C",
">. c #933746",
",. c #983B47",
"<. c #953B49",
"1. c #9D3E4B",
"2. c #833C51",
"3. c #8D3F50",
"4. c #A13E4A",
"5. c #9A404C",
"6. c #8E4255",
"7. c #8A4B5C",
"8. c #944452",
"9. c #9F4556",
"0. c #9B4D5C",
"q. c #A4414D",
"w. c #A9424E",
"e. c #A44651",
"r. c #A84752",
"t. c #A44A56",
"y. c #AA4A54",
"u. c #A34D59",
"i. c #A84D5D",
"p. c #B44B5A",
"a. c #B84F5D",
"s. c #A3535F",
"d. c #AF505A",
"f. c #8C5667",
"g. c #965362",
"h. c #9D5B68",
"j. c #AF5E6C",
"k. c #856777",
"l. c #856B7B",
"z. c #8C707F",
"x. c #A5616E",
"c. c #BE666B",
"v. c #A96774",
"b. c #C0686F",
"n. c #937483",
"m. c #A37683",
"M. c #BA7783",
"N. c #CF7E80",
"B. c #CB7E89",
"V. c #A58892",
"C. c #AB8A95",
"Z. c #B48690",
"A. c #BB8690",
"S. c #AD959D",
"D. c #B597A0",
"F. c #B39EA6",
"G. c #D18089",
"H. c #CA8C95",
"J. c #D08A93",
"K. c #C0969E",
"L. c #C89CA4",
"P. c #D59CA4",
"I. c #CAA6AC",
"U. c #D8A4AB",
"Y. c #D0ABB1",
"T. c #DCACB1",
"R. c #C8B1B7",
"E. c #DFB0B6",
"W. c #D6B4B9",
"Q. c #DFB4B9",
"!. c #DEB8BC",
"~. c #E3B7BB",
"^. c #D7BEC2",
"/. c #E4BDC0",
"(. c #DCC2C5",
"). c #E4C2C4",
"_. c #E7C6C8",
"`. c #E8C6C9",
"'. c #E6CACC",
"]. c #EACBCD",
"[. c #EECED0",
"{. c #EDD3D4",
"}. c #EFD7D8",
"|. c #F2D2D3",
" X c #F1D8D7",
".X c #F1DADB",
"XX c #FADFDD",
"oX c #F7E0E0",
"OX c None",
/* pixels */
"OXOXOXOXOXOXOXOXOXOXOXOXOXOXOXOXOXOXOXOXOXOXOXOXOXOXOXOXOXOXOXOX",
"OXOXOXOXOXOXOXOXOXOXOXOXOXOXOXOXOXOXOXOXOXOXOXOXOXOXOXOXOXOXOXOX",
"OXOXOXOXOXOXOXOXOXOXOXOXOX$ < , $ OXOXOXOXOXOXOXOXOXOXOXOXOXOXOX",
"OXOXOXOXOXOXOXOXOXOX$ 4 j M N v k t 2 2 OXOXOXOXOXOXOXOXOXOXOXOX",
"OXOXOXOXOXOXOXOX+ 4 V =.1.w.q.q.1.*.N 0 2 4 4 w : OXOXOXOXOXOXOX",
"OXOXOXOXOXOXOX$ z =.w.w.q.q.q.q.q.q.1.Z y 2 1 F w < OXOXOXOXOXOX",
"OXOXOXOXOXOX, N w.w.4.4.q.q.q.q.q.4.1.>.k $ F w j 4 < OXOXOXOXOX",
"OXOXOXOXOX1 B w.4.r.c.d.1.q.r.w.q.1.&.<.n ; w : 4 z t 9 OXOXOXOX",
"OXOXOXOXOXb r.q.1.c.N.y.w.w.w.w.w.' w ] ] j 4 < # u N u # OXOXOX",
"OXOXOXOXj 3.>.q.q.d.d.1.m ] :.T ,.=.( &.] C q 9 $ - B N 2 OXOXOX",
"OXOXOXOX` ;.7.s.4.r.w.<./ ( I H ] ( <.&.] N 9 9 , 0 M C u $ OXOX",
"OXOXOXOX[ [ Y.L.8.q.q.w.4.*.V , h ] ) ] ) M - < q a j C M 3 OXOX",
"OXOXOXOX/ 7.).|.K.8.4.<.H ] ) Z t ( C ] C j : 9 Y 2 j k M j @ OX",
"OXOXx % h o.^.C.D.I.h.' _ w.1.,.C ' V M M 1 # L OXOXu 3 Z M $ OX",
"OXN 6 OX, k V.! k.W.'.Z.0.&.A [ s.a.T < q = f m OXOXb M ) j 6 OX",
"OXl OXOXs 1 z.F.R.XX].[.W.A.h.x.i.p.Y $ + G ~ , OXb N Z M t l 0 ",
"6 OXOXB q # W _.(. X[._.~.E.H.B.j.Y w n $ Q 2 OXOXC Z ] z t M q ",
"5 OXOXC b < l.|._.[.{.'.).T.v.;./ 3 - n ^ i OXOX] ) &.C x p ( 8 ",
"OXOXOXOXv %.~._._.{. X'.~.U.g.j h M + +.O.M P OXOX) V V q ( } OX",
"OXOXOXOXOXOXm. X{.}. X'.~.P.0.t 2 1 i @.6.,.N 8 OXOXOXOXh t.Y OX",
"OXOXOXOXOXOXOX(.oX}. X_.!.G.3.$ < $ Q ( u./ l 8 OXOXOXj q.2.8 OX",
"OXOXOXOXOXD OXS.}..X}. XJ.9.u 2 ; W l ( 8.-.0 $ + 4 Z y.6.P OXOX",
"OXOXOXOXOXOXD OXS.}._.M.;.OXOX2 f - r ' { q.=.) ' 1.y.2.I OXOXOX",
"OXOXOXOXOXOXOXOXOXn.f.OXOXOXOX< d l l { :.-.9.r.r.3.o.E OXOXOXOX",
"OXOXOXOXOXOXOXOXOXOXOXOXOXOX# 9 l U M l ' 2.X.o... .R OXOXOXOXOX",
"OXOXOXOXOXOXOXOXOXOXOX# # O # j l l m 2 # q ` OXOXOXOXOXOXOXOXOX",
"OXOXOXOXOXOXOXOXOXOXO O & O 9 a a I 2 * > o OXOXOXOXOXOXOXOXOXOX",
"OXOXOXOXOXOXOXOXOXOX. & & 4 f a L q # > ; # OXOXOXOXOXOXOXOXOXOX",
"OXOXOXOXOXOXOXOXOXOXOX  @ i a q # > S @ ; # OXOXOXOXOXOXOXOXOXOX",
"OXOXOXOXOXOXOXOXOXOXOXOXOXo $ # # = = @ O OXOXOXOXOXOXOXOXOXOXOX",
"OXOXOXOXOXOXOXOXOXOXOXOXOXOXOXOXOXOXOXOXOXOXOXOXOXOXOXOXOXOXOXOX",
"OXOXOXOXOXOXOXOXOXOXOXOXOXOXOXOXOXOXOXOXOXOXOXOXOXOXOXOXOXOXOXOX"
};
